<svg id="Capa_1" enable-background="new 0 0 512 512" height="512" viewBox="0 0 512 512" width="512" xmlns="http://www.w3.org/2000/svg"><g><path d="m450.439 101.061c.013 0-105.983-90-105.983-90-2.628-2.217-6.006-3.561-9.703-3.561l52.833 347h30v-227h23.162c8.284 0 15-6.716 15-15 0-4.587-2.065-8.688-5.309-11.439z" fill="#ff9a42"/><path d="m339.423 11.061c-1.265-2.217-2.891-3.561-4.671-3.561-3.697 0-7.076 1.344-9.691 3.561-.013 0-106.009 90-106.009 90-3.232 2.751-5.297 6.852-5.297 11.439 0 8.284 6.716 15 15 15h23.162v227h135.667v-258.475z" fill="#ffb940"/><path d="m417.586 444.5h-30l-45-30 45-30h30z" fill="#ffb940"/><path d="m417.586 504.5h-30l-45-15 45-15h30z" fill="#ffd17e"/><path d="m251.919 474.5h135.667v30h-135.667z" fill="#ffe7ba"/><path d="m251.919 384.5h135.667v60h-135.667z" fill="#ffd17e"/><path d="m191.919 187.5h-30l30 152.511c0 8.28 6.71 14.5 15 14.5 8.28 0 15-6.22 15-14.5v-122.511c0-16.5-13.5-30-30-30z" fill="#1b74d6"/><path d="m86.252 187.5h30l-30 152.011c0 8.28-6.72 15-15 15s-15-6.72-15-15v-122.011c0-16.5 13.5-30 30-30z" fill="#54a5ff"/><path d="m191.919 217.5c0-16.5-13.5-30-30-30h-45.667c-16.5 0-30 13.5-30 30v268.084c0 10.447 8.469 18.916 18.917 18.916 10.447 0 18.917-8.469 18.917-18.916v-146.073h30v146.073c0 10.447 8.469 18.916 18.917 18.916 10.447 0 18.916-8.469 18.916-18.916z" fill="#1e8aff"/><path d="m138.756 67.5v90c24.853 0 45-20.147 45-45s-20.147-45-45-45z" fill="#1b74d6"/><path d="m153.756 112.5c0-24.853-6.716-45-15-45-24.853 0-45 20.147-45 45s20.147 45 45 45c8.285 0 15-20.147 15-45z" fill="#1e8aff"/><path d="m191.918 180h-105.666c-20.678 0-37.5 16.822-37.5 37.5v122.011c0 12.407 10.093 22.5 22.5 22.5 2.629 0 5.153-.458 7.5-1.29v124.863c0 14.566 11.851 26.417 26.417 26.417s26.417-11.851 26.417-26.417v-138.573h15v138.573c0 14.566 11.851 26.417 26.417 26.417s26.417-11.851 26.417-26.417v-124.786c2.337.784 4.858 1.213 7.5 1.213 12.617 0 22.5-9.664 22.5-22v-122.511c-.002-20.678-16.824-37.5-37.502-37.5zm22.5 160.011c0 3.991-3.224 7-7.5 7s-7.5-3.009-7.5-7v-122.511c0-4.142-3.358-7.5-7.5-7.5s-7.5 3.358-7.5 7.5v268.083c0 6.295-5.122 11.417-11.417 11.417s-11.417-5.122-11.417-11.417v-146.072c0-4.142-3.358-7.5-7.5-7.5h-30c-4.142 0-7.5 3.358-7.5 7.5v146.073c0 6.295-5.122 11.417-11.417 11.417s-11.417-5.122-11.417-11.417v-268.084c0-4.142-3.358-7.5-7.5-7.5s-7.5 3.358-7.5 7.5v122.011c0 4.136-3.364 7.5-7.5 7.5s-7.5-3.364-7.5-7.5v-122.011c0-12.407 10.093-22.5 22.5-22.5h105.667c12.407 0 22.5 10.093 22.5 22.5v122.511z"/><path d="m138.756 165c28.949 0 52.5-23.551 52.5-52.5s-23.551-52.5-52.5-52.5-52.5 23.551-52.5 52.5 23.552 52.5 52.5 52.5zm0-90c20.678 0 37.5 16.822 37.5 37.5s-16.822 37.5-37.5 37.5-37.5-16.822-37.5-37.5 16.823-37.5 37.5-37.5z"/><path d="m455.265 95.369c-.42-.408-105.972-90.041-105.972-90.041-4.072-3.435-9.236-5.328-14.541-5.328-5.316 0-10.48 1.896-14.528 5.355-.396.309-106.033 89.995-106.033 89.995-5.043 4.293-7.935 10.544-7.935 17.15 0 12.407 10.093 22.5 22.5 22.5h15.662v67.5c0 4.142 3.358 7.5 7.5 7.5s7.5-3.358 7.5-7.5v-75c0-4.142-3.358-7.5-7.5-7.5h-23.162c-4.136 0-7.5-3.364-7.5-7.5 0-2.202.969-4.29 2.651-5.722 1.044-.887 104.189-88.466 105.958-89.958.016-.013.031-.026.046-.039.958-.813 2.575-1.781 4.84-1.781 2.267 0 3.897.975 4.849 1.778 1.045.887 104.427 88.668 105.94 89.963.016.013.031.027.047.04 1.69 1.434 2.66 3.518 2.66 5.719 0 4.136-3.364 7.5-7.5 7.5h-23.163c-4.142 0-7.5 3.358-7.5 7.5v219.5h-150.666v-114.5c0-4.142-3.358-7.5-7.5-7.5s-7.5 3.358-7.5 7.5v122c0 4.142 3.358 7.5 7.5 7.5h165.667c4.142 0 7.5-3.358 7.5-7.5v-219.5h15.663c12.407 0 22.5-10.093 22.5-22.5 0-6.616-2.901-12.871-7.983-17.131z"/><path d="m417.585 467h-165.667c-4.142 0-7.5 3.358-7.5 7.5v30c0 4.142 3.358 7.5 7.5 7.5h165.667c4.142 0 7.5-3.358 7.5-7.5v-30c0-4.142-3.357-7.5-7.5-7.5zm-7.5 30h-150.667v-15h150.667z"/><path d="m417.585 377h-165.667c-4.142 0-7.5 3.358-7.5 7.5v60c0 4.142 3.358 7.5 7.5 7.5h165.667c4.142 0 7.5-3.358 7.5-7.5v-60c0-4.142-3.357-7.5-7.5-7.5zm-7.5 60h-150.667v-45h150.667z"/></g></svg>